<?xml version="1.0" encoding="utf-8"?>
<!-- Generator: Adobe Illustrator 16.2.0, SVG Export Plug-In . SVG Version: 6.00 Build 0)  -->
<!DOCTYPE svg PUBLIC "-//W3C//DTD SVG 1.1//EN" "http://www.w3.org/Graphics/SVG/1.1/DTD/svg11.dtd">
<svg version="1.1" id="Layer_1" xmlns="http://www.w3.org/2000/svg" xmlns:xlink="http://www.w3.org/1999/xlink" x="0px" y="0px"
	 width="84px" height="16px" viewBox="0 0 84 16" enable-background="new 0 0 84 16" xml:space="preserve">
<rect fill="#262626" width="16" height="16"/>
<path id="twitter_bird" fill="#FFFFFF" d="M11.926,5.566C11.637,5.694,11.326,5.781,11,5.82c0.334-0.2,0.59-0.515,0.709-0.892
	c-0.312,0.185-0.655,0.319-1.023,0.391c-0.293-0.312-0.712-0.508-1.175-0.508c-0.891,0-1.612,0.721-1.612,1.611
	c0,0.126,0.016,0.25,0.042,0.367C6.603,6.722,5.415,6.081,4.621,5.106C4.482,5.344,4.403,5.62,4.403,5.916
	c0,0.559,0.284,1.052,0.716,1.341C4.855,7.248,4.607,7.176,4.39,7.056c0,0.006,0,0.013,0,0.02c0,0.781,0.556,1.432,1.292,1.579
	C5.546,8.691,5.404,8.711,5.257,8.711c-0.104,0-0.204-0.01-0.303-0.029c0.205,0.642,0.8,1.106,1.505,1.12
	c-0.551,0.432-1.246,0.69-2,0.69c-0.13,0-0.259-0.009-0.384-0.024c0.713,0.458,1.56,0.725,2.469,0.725
	c2.962,0,4.583-2.455,4.583-4.583c0-0.07-0.001-0.14-0.006-0.209C11.437,6.173,11.71,5.889,11.926,5.566z"/>
<rect x="17" y="0" fill="#262626" width="16" height="16"/>
<path id="facebook" fill="#FFFFFF" d="M26.816,6.714h-1.312V5.618c0-0.228,0.26-0.469,0.507-0.469h0.817V3.938H25.67
	c-0.567,0-0.996,0.142-1.275,0.422c-0.251,0.252-0.378,0.609-0.376,1.059v1.3h-0.847v1.153h0.847v4.2h1.479v-4.2h1.184
	C26.712,7.671,26.775,7.215,26.816,6.714z"/>
<rect x="34" y="0.005" fill="#262626" width="16" height="16"/>
<polygon id="google" fill="#FFFFFF" points="45.908,7.148 42.857,7.148 42.857,4.097 41.144,4.097 41.144,7.148 38.093,7.148 
	38.093,8.861 41.145,8.861 41.145,11.913 42.857,11.913 42.857,8.861 45.908,8.861 "/>
<rect x="51" y="0.005" fill="#262626" width="16" height="16"/>
<path id="Flickr" fill="#FFFFFF" d="M63.232,8.005c0,1.039-0.851,1.883-1.9,1.883c-1.047,0-1.898-0.844-1.898-1.883
	s0.852-1.883,1.898-1.883C62.382,6.122,63.232,6.966,63.232,8.005z M56.658,6.122c-1.049,0-1.898,0.844-1.898,1.883
	s0.85,1.883,1.898,1.883s1.898-0.844,1.898-1.883S57.707,6.122,56.658,6.122z"/>
<rect x="68" fill="#262626" width="16" height="16"/>
<g id="rss">
	<path fill="#FFFFFF" d="M72.073,3.961h-0.121v1.09h0.121c3.791,0,6.875,3.084,6.875,6.877v0.12h1.091v-0.12
		C80.039,7.534,76.466,3.961,72.073,3.961z"/>
	<path fill="#FFFFFF" d="M72.074,6.69h-0.121v1.242h0.121c2.195,0,3.982,1.786,3.982,3.982v0.12h1.241v-0.12
		C77.298,9.034,74.955,6.69,72.074,6.69z"/>
	<circle fill="#FFFFFF" cx="72.955" cy="11.047" r="1.001"/>
</g>
</svg>
